<svg width="49" height="40" viewBox="0 0 49 40" fill="none" xmlns="http://www.w3.org/2000/svg">
<path d="M16.4971 32.8594V33.8311H12.7227V32.8594H16.4971ZM13.0254 29.8906V37H11.7998V29.8906H13.0254ZM17.4395 29.8906V37H16.2188V29.8906H17.4395ZM18.5576 34.417V34.3047C18.5576 33.9238 18.613 33.5706 18.7236 33.2451C18.8343 32.9163 18.9938 32.6315 19.2021 32.3906C19.4137 32.1465 19.6709 31.9577 19.9736 31.8242C20.2796 31.6875 20.6247 31.6191 21.0088 31.6191C21.3962 31.6191 21.7412 31.6875 22.0439 31.8242C22.3499 31.9577 22.6087 32.1465 22.8203 32.3906C23.0319 32.6315 23.193 32.9163 23.3037 33.2451C23.4144 33.5706 23.4697 33.9238 23.4697 34.3047V34.417C23.4697 34.7979 23.4144 35.151 23.3037 35.4766C23.193 35.8021 23.0319 36.0869 22.8203 36.3311C22.6087 36.5719 22.3516 36.7607 22.0488 36.8975C21.7461 37.0309 21.4027 37.0977 21.0186 37.0977C20.6312 37.0977 20.2845 37.0309 19.9785 36.8975C19.6758 36.7607 19.4186 36.5719 19.207 36.3311C18.9954 36.0869 18.8343 35.8021 18.7236 35.4766C18.613 35.151 18.5576 34.7979 18.5576 34.417ZM19.7344 34.3047V34.417C19.7344 34.6546 19.7588 34.8792 19.8076 35.0908C19.8564 35.3024 19.9329 35.488 20.0371 35.6475C20.1413 35.807 20.2747 35.9323 20.4375 36.0234C20.6003 36.1146 20.7939 36.1602 21.0186 36.1602C21.2367 36.1602 21.4255 36.1146 21.585 36.0234C21.7477 35.9323 21.8812 35.807 21.9854 35.6475C22.0895 35.488 22.166 35.3024 22.2148 35.0908C22.2669 34.8792 22.293 34.6546 22.293 34.417V34.3047C22.293 34.0703 22.2669 33.849 22.2148 33.6406C22.166 33.429 22.0879 33.2419 21.9805 33.0791C21.8763 32.9163 21.7428 32.7894 21.5801 32.6982C21.4206 32.6038 21.2301 32.5566 21.0088 32.5566C20.7874 32.5566 20.5954 32.6038 20.4326 32.6982C20.2731 32.7894 20.1413 32.9163 20.0371 33.0791C19.9329 33.2419 19.8564 33.429 19.8076 33.6406C19.7588 33.849 19.7344 34.0703 19.7344 34.3047ZM25.6328 32.791V37H24.4561V31.7168H25.5645L25.6328 32.791ZM25.4424 34.1631L25.042 34.1582C25.042 33.7936 25.0876 33.4567 25.1787 33.1475C25.2699 32.8382 25.4033 32.5697 25.5791 32.3418C25.7549 32.1107 25.973 31.9333 26.2334 31.8096C26.4971 31.6826 26.8014 31.6191 27.1465 31.6191C27.3874 31.6191 27.6071 31.6549 27.8057 31.7266C28.0075 31.7949 28.1816 31.904 28.3281 32.0537C28.4779 32.2035 28.5918 32.3955 28.6699 32.6299C28.7513 32.8643 28.792 33.1475 28.792 33.4795V37H27.6152V33.582C27.6152 33.3249 27.5762 33.123 27.498 32.9766C27.4232 32.8301 27.3141 32.7259 27.1709 32.6641C27.0309 32.599 26.8633 32.5664 26.668 32.5664C26.4466 32.5664 26.2578 32.6087 26.1016 32.6934C25.9486 32.778 25.8232 32.8936 25.7256 33.04C25.6279 33.1865 25.5563 33.3558 25.5107 33.5479C25.4652 33.7399 25.4424 33.945 25.4424 34.1631ZM28.7188 33.8506L28.167 33.9727C28.167 33.6536 28.2109 33.3525 28.2988 33.0693C28.39 32.7829 28.5218 32.5322 28.6943 32.3174C28.8701 32.0993 29.0866 31.9284 29.3438 31.8047C29.6009 31.681 29.8955 31.6191 30.2275 31.6191C30.4977 31.6191 30.7386 31.6566 30.9502 31.7314C31.165 31.8031 31.3473 31.917 31.4971 32.0732C31.6468 32.2295 31.7607 32.4329 31.8389 32.6836C31.917 32.931 31.9561 33.2305 31.9561 33.582V37H30.7744V33.5771C30.7744 33.3102 30.7354 33.1035 30.6572 32.957C30.5824 32.8105 30.4749 32.7096 30.335 32.6543C30.195 32.5957 30.0273 32.5664 29.832 32.5664C29.6497 32.5664 29.4886 32.6006 29.3486 32.6689C29.2119 32.734 29.0964 32.8268 29.002 32.9473C28.9076 33.0645 28.8359 33.1995 28.7871 33.3525C28.7415 33.5055 28.7188 33.6715 28.7188 33.8506ZM35.4961 37.0977C35.1055 37.0977 34.7523 37.0342 34.4365 36.9072C34.124 36.777 33.8571 36.5964 33.6357 36.3652C33.4176 36.1341 33.25 35.8623 33.1328 35.5498C33.0156 35.2373 32.957 34.9004 32.957 34.5391V34.3438C32.957 33.9303 33.0173 33.556 33.1377 33.2207C33.2581 32.8854 33.4258 32.599 33.6406 32.3613C33.8555 32.1204 34.1094 31.9365 34.4023 31.8096C34.6953 31.6826 35.0127 31.6191 35.3545 31.6191C35.7321 31.6191 36.0625 31.6826 36.3457 31.8096C36.6289 31.9365 36.8633 32.1156 37.0488 32.3467C37.2376 32.5745 37.3776 32.8464 37.4688 33.1621C37.5632 33.4779 37.6104 33.8262 37.6104 34.207V34.71H33.5283V33.8652H36.4482V33.7725C36.4417 33.5609 36.3994 33.3623 36.3213 33.1768C36.2464 32.9912 36.1309 32.8415 35.9746 32.7275C35.8184 32.6136 35.61 32.5566 35.3496 32.5566C35.1543 32.5566 34.9801 32.599 34.8271 32.6836C34.6774 32.765 34.5521 32.8838 34.4512 33.04C34.3503 33.1963 34.2721 33.3851 34.2168 33.6064C34.1647 33.8245 34.1387 34.0703 34.1387 34.3438V34.5391C34.1387 34.7702 34.1696 34.985 34.2314 35.1836C34.2965 35.3789 34.391 35.5498 34.5146 35.6963C34.6383 35.8428 34.7881 35.9583 34.9639 36.043C35.1396 36.1243 35.3398 36.165 35.5645 36.165C35.8477 36.165 36.0999 36.1081 36.3213 35.9941C36.5426 35.8802 36.7347 35.7191 36.8975 35.5107L37.5176 36.1113C37.4036 36.2773 37.2555 36.4368 37.0732 36.5898C36.891 36.7396 36.668 36.8617 36.4043 36.9561C36.1439 37.0505 35.8411 37.0977 35.4961 37.0977Z" fill="#D2D2D2"/>
<path d="M16 14H18V21C18 21.2652 18.1053 21.5196 18.2929 21.7071C18.4804 21.8947 18.7348 22 19 22H31C31.2652 22 31.5196 21.8947 31.7071 21.7071C31.8946 21.5196 32 21.2652 32 21V14H34C34.1932 14.0002 34.3824 13.9442 34.5445 13.839C34.7065 13.7337 34.8346 13.5837 34.913 13.407C34.9919 13.2305 35.0179 13.0348 34.9877 12.8438C34.9576 12.6528 34.8725 12.4746 34.743 12.331L25.743 2.33103C25.364 1.90903 24.636 1.90903 24.257 2.33103L15.257 12.331C15.1277 12.4747 15.0428 12.6527 15.0125 12.8437C14.9823 13.0346 15.0081 13.2301 15.0867 13.4067C15.1653 13.5833 15.2934 13.7333 15.4555 13.8386C15.6176 13.9439 15.8067 14 16 14ZM21.949 13.684C21.98 13.779 22.762 16 25 16C27.269 16 28.042 13.713 28.05 13.689L29.95 14.31C29.901 14.461 28.703 18 25 18C21.297 18 20.099 14.461 20.05 14.311L21.949 13.684Z" fill="#D2D2D2"/>
</svg>
