<svg width="25" height="24" viewBox="0 0 25 24" fill="none" xmlns="http://www.w3.org/2000/svg">
<g clip-path="url(#clip0_841_1511)">
<path d="M13.5 14.062V22H4.5C4.49989 20.8649 4.74133 19.7428 5.20827 18.7083C5.6752 17.6737 6.35695 16.7503 7.20822 15.9995C8.05948 15.2487 9.06078 14.6876 10.1456 14.3536C11.2304 14.0195 12.3738 13.9201 13.5 14.062ZM12.5 13C9.185 13 6.5 10.315 6.5 7C6.5 3.685 9.185 1 12.5 1C15.815 1 18.5 3.685 18.5 7C18.5 10.315 15.815 13 12.5 13ZM18.293 19.914L21.828 16.379L23.243 17.793L18.293 22.743L14.757 19.207L16.172 17.793L18.293 19.914Z" fill="#BDBDBD"/>
</g>
<defs>
<clipPath id="clip0_841_1511">
<rect width="24" height="24" fill="white" transform="translate(0.5)"/>
</clipPath>
</defs>
</svg>
