<svg width="49" height="40" viewBox="0 0 49 40" fill="none" xmlns="http://www.w3.org/2000/svg">
<path d="M17.8477 29.8906V37H16.6221L13.4336 31.9072V37H12.208V29.8906H13.4336L16.6318 34.9932V29.8906H17.8477ZM21.5195 37.0977C21.1289 37.0977 20.7757 37.0342 20.46 36.9072C20.1475 36.777 19.8805 36.5964 19.6592 36.3652C19.4411 36.1341 19.2734 35.8623 19.1562 35.5498C19.0391 35.2373 18.9805 34.9004 18.9805 34.5391V34.3438C18.9805 33.9303 19.0407 33.556 19.1611 33.2207C19.2816 32.8854 19.4492 32.599 19.6641 32.3613C19.8789 32.1204 20.1328 31.9365 20.4258 31.8096C20.7188 31.6826 21.0361 31.6191 21.3779 31.6191C21.7555 31.6191 22.0859 31.6826 22.3691 31.8096C22.6523 31.9365 22.8867 32.1156 23.0723 32.3467C23.2611 32.5745 23.401 32.8464 23.4922 33.1621C23.5866 33.4779 23.6338 33.8262 23.6338 34.207V34.71H19.5518V33.8652H22.4717V33.7725C22.4652 33.5609 22.4229 33.3623 22.3447 33.1768C22.2699 32.9912 22.1543 32.8415 21.998 32.7275C21.8418 32.6136 21.6335 32.5566 21.373 32.5566C21.1777 32.5566 21.0036 32.599 20.8506 32.6836C20.7008 32.765 20.5755 32.8838 20.4746 33.04C20.3737 33.1963 20.2956 33.3851 20.2402 33.6064C20.1882 33.8245 20.1621 34.0703 20.1621 34.3438V34.5391C20.1621 34.7702 20.193 34.985 20.2549 35.1836C20.32 35.3789 20.4144 35.5498 20.5381 35.6963C20.6618 35.8428 20.8115 35.9583 20.9873 36.043C21.1631 36.1243 21.3633 36.165 21.5879 36.165C21.8711 36.165 22.1234 36.1081 22.3447 35.9941C22.5661 35.8802 22.7581 35.7191 22.9209 35.5107L23.541 36.1113C23.4271 36.2773 23.279 36.4368 23.0967 36.5898C22.9144 36.7396 22.6914 36.8617 22.4277 36.9561C22.1673 37.0505 21.8646 37.0977 21.5195 37.0977ZM25.9873 35.8281L27.208 31.7168H27.96L27.7549 32.9473L26.5244 37H25.8506L25.9873 35.8281ZM25.2695 31.7168L26.2217 35.8477L26.2998 37H25.5479L24.1172 31.7168H25.2695ZM29.1025 35.7988L30.0254 31.7168H31.1729L29.7471 37H28.9951L29.1025 35.7988ZM28.0869 31.7168L29.293 35.7793L29.4443 37H28.7705L27.5254 32.9424L27.3203 31.7168H28.0869ZM34.9375 35.5693C34.9375 35.4521 34.9082 35.3464 34.8496 35.252C34.791 35.1543 34.6787 35.0664 34.5127 34.9883C34.3499 34.9102 34.109 34.8385 33.79 34.7734C33.5101 34.7116 33.2529 34.6383 33.0186 34.5537C32.7874 34.4658 32.5889 34.36 32.4229 34.2363C32.2568 34.1126 32.1283 33.9661 32.0371 33.7969C31.946 33.6276 31.9004 33.4323 31.9004 33.2109C31.9004 32.9961 31.9476 32.7926 32.042 32.6006C32.1364 32.4085 32.2715 32.2393 32.4473 32.0928C32.623 31.9463 32.8363 31.8307 33.0869 31.7461C33.3408 31.6615 33.624 31.6191 33.9365 31.6191C34.3792 31.6191 34.7585 31.694 35.0742 31.8438C35.3932 31.9902 35.6374 32.1904 35.8066 32.4443C35.9759 32.695 36.0605 32.9782 36.0605 33.2939H34.8838C34.8838 33.154 34.848 33.0238 34.7764 32.9033C34.708 32.7796 34.6038 32.6803 34.4639 32.6055C34.3239 32.5273 34.1481 32.4883 33.9365 32.4883C33.7347 32.4883 33.5671 32.5208 33.4336 32.5859C33.3034 32.6478 33.2057 32.7292 33.1406 32.8301C33.0788 32.931 33.0479 33.0417 33.0479 33.1621C33.0479 33.25 33.0641 33.3298 33.0967 33.4014C33.1325 33.4697 33.1911 33.5332 33.2725 33.5918C33.3538 33.6471 33.4645 33.6992 33.6045 33.748C33.7477 33.7969 33.9268 33.8441 34.1416 33.8896C34.5452 33.9743 34.8919 34.0833 35.1816 34.2168C35.4746 34.347 35.6992 34.5163 35.8555 34.7246C36.0117 34.9297 36.0898 35.1901 36.0898 35.5059C36.0898 35.7402 36.0394 35.9551 35.9385 36.1504C35.8408 36.3424 35.6976 36.5101 35.5088 36.6533C35.32 36.7933 35.0938 36.9023 34.8301 36.9805C34.5697 37.0586 34.2767 37.0977 33.9512 37.0977C33.4727 37.0977 33.0674 37.013 32.7354 36.8438C32.4033 36.6712 32.151 36.4515 31.9785 36.1846C31.8092 35.9144 31.7246 35.6344 31.7246 35.3447H32.8623C32.8753 35.5628 32.9355 35.737 33.043 35.8672C33.1536 35.9941 33.2904 36.0869 33.4531 36.1455C33.6191 36.2008 33.79 36.2285 33.9658 36.2285C34.1774 36.2285 34.3548 36.2008 34.498 36.1455C34.6413 36.0869 34.7503 36.0088 34.8252 35.9111C34.9001 35.8102 34.9375 35.6963 34.9375 35.5693Z" fill="#D2D2D2"/>
<path fill-rule="evenodd" clip-rule="evenodd" d="M15.4 6.0001C15.4 4.67461 16.4745 3.6001 17.8 3.6001H27.4C28.7255 3.6001 29.8 4.67461 29.8 6.0001V18.0001C29.8 19.3256 30.8745 20.4001 32.2 20.4001H17.8C16.4745 20.4001 15.4 19.3256 15.4 18.0001V6.0001ZM19 7.2001H26.2V12.0001H19V7.2001ZM26.2 14.4001H19V16.8001H26.2V14.4001Z" fill="#D2D2D2"/>
<path d="M31 8.3999H32.2C33.5255 8.3999 34.6 9.47442 34.6 10.7999V17.3999C34.6 18.394 33.7941 19.1999 32.8 19.1999C31.8059 19.1999 31 18.394 31 17.3999V8.3999Z" fill="#D2D2D2"/>
</svg>
