<svg width="25" height="24" viewBox="0 0 25 24" fill="none" xmlns="http://www.w3.org/2000/svg">
<path d="M20.5297 6.76641C20.6703 6.90703 20.75 7.09687 20.75 7.29609V21.75C20.75 22.1648 20.4148 22.5 20 22.5H5C4.58516 22.5 4.25 22.1648 4.25 21.75V2.25C4.25 1.83516 4.58516 1.5 5 1.5H14.9539C15.1531 1.5 15.3453 1.57969 15.4859 1.72031L20.5297 6.76641ZM19.0203 7.64062L14.6094 3.22969V7.64062H19.0203ZM8 11.2969C7.95027 11.2969 7.90258 11.3166 7.86742 11.3518C7.83225 11.387 7.8125 11.4346 7.8125 11.4844V12.6094C7.8125 12.6591 7.83225 12.7068 7.86742 12.742C7.90258 12.7771 7.95027 12.7969 8 12.7969H17C17.0497 12.7969 17.0974 12.7771 17.1326 12.742C17.1677 12.7068 17.1875 12.6591 17.1875 12.6094V11.4844C17.1875 11.4346 17.1677 11.387 17.1326 11.3518C17.0974 11.3166 17.0497 11.2969 17 11.2969H8ZM8 14.4844C7.95027 14.4844 7.90258 14.5041 7.86742 14.5393C7.83225 14.5745 7.8125 14.6221 7.8125 14.6719V15.7969C7.8125 15.8466 7.83225 15.8943 7.86742 15.9295C7.90258 15.9646 7.95027 15.9844 8 15.9844H12.3125C12.3622 15.9844 12.4099 15.9646 12.4451 15.9295C12.4802 15.8943 12.5 15.8466 12.5 15.7969V14.6719C12.5 14.6221 12.4802 14.5745 12.4451 14.5393C12.4099 14.5041 12.3622 14.4844 12.3125 14.4844H8Z" fill="#BDBDBD"/>
</svg>
