<svg width="49" height="40" viewBox="0 0 49 40" fill="none" xmlns="http://www.w3.org/2000/svg">
<path d="M9.95703 35.1689C9.95703 35.0225 9.93424 34.8923 9.88867 34.7783C9.84635 34.6644 9.76986 34.5602 9.65918 34.4658C9.5485 34.3714 9.39225 34.2803 9.19043 34.1924C8.99186 34.1012 8.73796 34.0085 8.42871 33.9141C8.09017 33.8099 7.77767 33.6943 7.49121 33.5674C7.20801 33.4372 6.96061 33.2874 6.74902 33.1182C6.53743 32.9456 6.37305 32.7487 6.25586 32.5273C6.13867 32.3027 6.08008 32.0439 6.08008 31.751C6.08008 31.4613 6.1403 31.1976 6.26074 30.96C6.38444 30.7223 6.55859 30.5173 6.7832 30.3447C7.01107 30.1689 7.27962 30.0339 7.58887 29.9395C7.89811 29.8418 8.23991 29.793 8.61426 29.793C9.1416 29.793 9.5957 29.8906 9.97656 30.0859C10.3607 30.2812 10.6553 30.5433 10.8604 30.8721C11.0687 31.2008 11.1729 31.5638 11.1729 31.9609H9.95703C9.95703 31.7266 9.90658 31.5199 9.80566 31.3408C9.70801 31.1585 9.55827 31.0153 9.35645 30.9111C9.15788 30.807 8.9056 30.7549 8.59961 30.7549C8.3099 30.7549 8.06901 30.7988 7.87695 30.8867C7.6849 30.9746 7.54167 31.0934 7.44727 31.2432C7.35286 31.3929 7.30566 31.5622 7.30566 31.751C7.30566 31.8844 7.33659 32.0065 7.39844 32.1172C7.46029 32.2246 7.55469 32.3255 7.68164 32.4199C7.80859 32.5111 7.9681 32.5973 8.16016 32.6787C8.35221 32.7601 8.57845 32.8382 8.83887 32.9131C9.23275 33.0303 9.57617 33.1605 9.86914 33.3037C10.1621 33.4437 10.4062 33.6032 10.6016 33.7822C10.7969 33.9613 10.9434 34.1647 11.041 34.3926C11.1387 34.6172 11.1875 34.8727 11.1875 35.1592C11.1875 35.4587 11.1273 35.7288 11.0068 35.9697C10.8864 36.2074 10.7139 36.4108 10.4893 36.5801C10.2679 36.7461 10.001 36.8747 9.68848 36.9658C9.37923 37.0537 9.03418 37.0977 8.65332 37.0977C8.31152 37.0977 7.97461 37.0521 7.64258 36.9609C7.3138 36.8698 7.01432 36.7314 6.74414 36.5459C6.47396 36.3571 6.25911 36.1227 6.09961 35.8428C5.9401 35.5596 5.86035 35.2292 5.86035 34.8516H7.08594C7.08594 35.0827 7.125 35.2796 7.20312 35.4424C7.28451 35.6051 7.39681 35.7386 7.54004 35.8428C7.68327 35.9437 7.84928 36.0186 8.03809 36.0674C8.23014 36.1162 8.43522 36.1406 8.65332 36.1406C8.93978 36.1406 9.17904 36.0999 9.37109 36.0186C9.56641 35.9372 9.71289 35.8232 9.81055 35.6768C9.9082 35.5303 9.95703 35.361 9.95703 35.1689ZM14.4834 37.0977C14.0928 37.0977 13.7396 37.0342 13.4238 36.9072C13.1113 36.777 12.8444 36.5964 12.623 36.3652C12.4049 36.1341 12.2373 35.8623 12.1201 35.5498C12.0029 35.2373 11.9443 34.9004 11.9443 34.5391V34.3438C11.9443 33.9303 12.0046 33.556 12.125 33.2207C12.2454 32.8854 12.4131 32.599 12.6279 32.3613C12.8428 32.1204 13.0967 31.9365 13.3896 31.8096C13.6826 31.6826 14 31.6191 14.3418 31.6191C14.7194 31.6191 15.0498 31.6826 15.333 31.8096C15.6162 31.9365 15.8506 32.1156 16.0361 32.3467C16.2249 32.5745 16.3649 32.8464 16.4561 33.1621C16.5505 33.4779 16.5977 33.8262 16.5977 34.207V34.71H12.5156V33.8652H15.4355V33.7725C15.429 33.5609 15.3867 33.3623 15.3086 33.1768C15.2337 32.9912 15.1182 32.8415 14.9619 32.7275C14.8057 32.6136 14.5973 32.5566 14.3369 32.5566C14.1416 32.5566 13.9674 32.599 13.8145 32.6836C13.6647 32.765 13.5394 32.8838 13.4385 33.04C13.3376 33.1963 13.2594 33.3851 13.2041 33.6064C13.152 33.8245 13.126 34.0703 13.126 34.3438V34.5391C13.126 34.7702 13.1569 34.985 13.2188 35.1836C13.2839 35.3789 13.3783 35.5498 13.502 35.6963C13.6257 35.8428 13.7754 35.9583 13.9512 36.043C14.127 36.1243 14.3271 36.165 14.5518 36.165C14.835 36.165 15.0872 36.1081 15.3086 35.9941C15.5299 35.8802 15.722 35.7191 15.8848 35.5107L16.5049 36.1113C16.391 36.2773 16.2428 36.4368 16.0605 36.5898C15.8783 36.7396 15.6553 36.8617 15.3916 36.9561C15.1312 37.0505 14.8285 37.0977 14.4834 37.0977ZM19.9375 31.7168V32.5762H16.959V31.7168H19.9375ZM17.8184 30.4229H18.9951V35.54C18.9951 35.7028 19.0179 35.8281 19.0635 35.916C19.1123 36.0007 19.179 36.0576 19.2637 36.0869C19.3483 36.1162 19.4476 36.1309 19.5615 36.1309C19.6429 36.1309 19.721 36.126 19.7959 36.1162C19.8708 36.1064 19.931 36.0967 19.9766 36.0869L19.9814 36.9854C19.8838 37.0146 19.7699 37.0407 19.6396 37.0635C19.5127 37.0863 19.3662 37.0977 19.2002 37.0977C18.93 37.0977 18.6908 37.0505 18.4824 36.9561C18.2741 36.8584 18.1113 36.7005 17.9941 36.4824C17.877 36.2643 17.8184 35.9746 17.8184 35.6133V30.4229ZM23.2676 31.7168V32.5762H20.2891V31.7168H23.2676ZM21.1484 30.4229H22.3252V35.54C22.3252 35.7028 22.348 35.8281 22.3936 35.916C22.4424 36.0007 22.5091 36.0576 22.5938 36.0869C22.6784 36.1162 22.7777 36.1309 22.8916 36.1309C22.973 36.1309 23.0511 36.126 23.126 36.1162C23.2008 36.1064 23.2611 36.0967 23.3066 36.0869L23.3115 36.9854C23.2139 37.0146 23.0999 37.0407 22.9697 37.0635C22.8428 37.0863 22.6963 37.0977 22.5303 37.0977C22.2601 37.0977 22.0208 37.0505 21.8125 36.9561C21.6042 36.8584 21.4414 36.7005 21.3242 36.4824C21.207 36.2643 21.1484 35.9746 21.1484 35.6133V30.4229ZM25.4355 31.7168V37H24.2539V31.7168H25.4355ZM24.1758 30.3301C24.1758 30.151 24.2344 30.0029 24.3516 29.8857C24.472 29.7653 24.638 29.7051 24.8496 29.7051C25.0579 29.7051 25.2223 29.7653 25.3428 29.8857C25.4632 30.0029 25.5234 30.151 25.5234 30.3301C25.5234 30.5059 25.4632 30.6523 25.3428 30.7695C25.2223 30.8867 25.0579 30.9453 24.8496 30.9453C24.638 30.9453 24.472 30.8867 24.3516 30.7695C24.2344 30.6523 24.1758 30.5059 24.1758 30.3301ZM27.8916 32.8447V37H26.7148V31.7168H27.8232L27.8916 32.8447ZM27.6816 34.1631L27.3008 34.1582C27.304 33.7839 27.3561 33.4404 27.457 33.1279C27.5612 32.8154 27.7044 32.5469 27.8867 32.3223C28.0723 32.0977 28.2936 31.9251 28.5508 31.8047C28.8079 31.681 29.0944 31.6191 29.4102 31.6191C29.6641 31.6191 29.8936 31.6549 30.0986 31.7266C30.307 31.7949 30.4844 31.9072 30.6309 32.0635C30.7806 32.2197 30.8945 32.4232 30.9727 32.6738C31.0508 32.9212 31.0898 33.2256 31.0898 33.5869V37H29.9082V33.582C29.9082 33.3281 29.8708 33.1279 29.7959 32.9814C29.7243 32.8317 29.6185 32.7259 29.4785 32.6641C29.3418 32.599 29.1709 32.5664 28.9658 32.5664C28.764 32.5664 28.5833 32.6087 28.4238 32.6934C28.2643 32.778 28.1292 32.8936 28.0186 33.04C27.9111 33.1865 27.8281 33.3558 27.7695 33.5479C27.7109 33.7399 27.6816 33.945 27.6816 34.1631ZM35.6748 31.7168H36.7441V36.8535C36.7441 37.3288 36.6432 37.7324 36.4414 38.0645C36.2396 38.3965 35.958 38.6488 35.5967 38.8213C35.2354 38.9971 34.8171 39.085 34.3418 39.085C34.14 39.085 33.9154 39.0557 33.668 38.9971C33.4238 38.9385 33.1862 38.8441 32.9551 38.7139C32.7272 38.5869 32.5368 38.4193 32.3838 38.2109L32.9355 37.5176C33.1243 37.7422 33.3327 37.9066 33.5605 38.0107C33.7884 38.1149 34.0277 38.167 34.2783 38.167C34.5485 38.167 34.778 38.1165 34.9668 38.0156C35.1589 37.918 35.307 37.7731 35.4111 37.5811C35.5153 37.389 35.5674 37.1546 35.5674 36.8779V32.9131L35.6748 31.7168ZM32.0859 34.417V34.3145C32.0859 33.9141 32.1348 33.5495 32.2324 33.2207C32.3301 32.8887 32.4701 32.6038 32.6523 32.3662C32.8346 32.1253 33.056 31.9414 33.3164 31.8145C33.5768 31.6842 33.8714 31.6191 34.2002 31.6191C34.542 31.6191 34.8333 31.681 35.0742 31.8047C35.3184 31.9284 35.5218 32.1058 35.6846 32.3369C35.8473 32.5648 35.9743 32.8382 36.0654 33.1572C36.1598 33.473 36.2298 33.8245 36.2754 34.2119V34.5391C36.2331 34.9167 36.1615 35.2617 36.0605 35.5742C35.9596 35.8867 35.8262 36.1569 35.6602 36.3848C35.4941 36.6126 35.2891 36.7884 35.0449 36.9121C34.804 37.0358 34.5192 37.0977 34.1904 37.0977C33.8682 37.0977 33.5768 37.0309 33.3164 36.8975C33.0592 36.764 32.8379 36.5768 32.6523 36.3359C32.4701 36.0951 32.3301 35.8118 32.2324 35.4863C32.1348 35.1576 32.0859 34.8011 32.0859 34.417ZM33.2627 34.3145V34.417C33.2627 34.6579 33.2855 34.8825 33.3311 35.0908C33.3799 35.2992 33.4531 35.4831 33.5508 35.6426C33.6517 35.7988 33.7786 35.9225 33.9316 36.0137C34.0879 36.1016 34.2718 36.1455 34.4834 36.1455C34.7601 36.1455 34.9863 36.0869 35.1621 35.9697C35.3411 35.8525 35.4779 35.6947 35.5723 35.4961C35.6699 35.2943 35.7383 35.0697 35.7773 34.8223V33.9385C35.7578 33.7464 35.7171 33.5674 35.6553 33.4014C35.5967 33.2354 35.5169 33.0905 35.416 32.9668C35.3151 32.8398 35.1882 32.7422 35.0352 32.6738C34.8822 32.6022 34.7015 32.5664 34.4932 32.5664C34.2816 32.5664 34.0977 32.612 33.9414 32.7031C33.7852 32.7943 33.6566 32.9196 33.5557 33.0791C33.458 33.2386 33.3848 33.4242 33.3359 33.6357C33.2871 33.8473 33.2627 34.0736 33.2627 34.3145ZM40.9287 35.5693C40.9287 35.4521 40.8994 35.3464 40.8408 35.252C40.7822 35.1543 40.6699 35.0664 40.5039 34.9883C40.3411 34.9102 40.1003 34.8385 39.7812 34.7734C39.5013 34.7116 39.2441 34.6383 39.0098 34.5537C38.7786 34.4658 38.5801 34.36 38.4141 34.2363C38.248 34.1126 38.1195 33.9661 38.0283 33.7969C37.9372 33.6276 37.8916 33.4323 37.8916 33.2109C37.8916 32.9961 37.9388 32.7926 38.0332 32.6006C38.1276 32.4085 38.2627 32.2393 38.4385 32.0928C38.6143 31.9463 38.8275 31.8307 39.0781 31.7461C39.332 31.6615 39.6152 31.6191 39.9277 31.6191C40.3704 31.6191 40.7497 31.694 41.0654 31.8438C41.3844 31.9902 41.6286 32.1904 41.7979 32.4443C41.9671 32.695 42.0518 32.9782 42.0518 33.2939H40.875C40.875 33.154 40.8392 33.0238 40.7676 32.9033C40.6992 32.7796 40.5951 32.6803 40.4551 32.6055C40.3151 32.5273 40.1393 32.4883 39.9277 32.4883C39.7259 32.4883 39.5583 32.5208 39.4248 32.5859C39.2946 32.6478 39.1969 32.7292 39.1318 32.8301C39.07 32.931 39.0391 33.0417 39.0391 33.1621C39.0391 33.25 39.0553 33.3298 39.0879 33.4014C39.1237 33.4697 39.1823 33.5332 39.2637 33.5918C39.3451 33.6471 39.4557 33.6992 39.5957 33.748C39.7389 33.7969 39.918 33.8441 40.1328 33.8896C40.5365 33.9743 40.8831 34.0833 41.1729 34.2168C41.4658 34.347 41.6904 34.5163 41.8467 34.7246C42.0029 34.9297 42.0811 35.1901 42.0811 35.5059C42.0811 35.7402 42.0306 35.9551 41.9297 36.1504C41.832 36.3424 41.6888 36.5101 41.5 36.6533C41.3112 36.7933 41.085 36.9023 40.8213 36.9805C40.5609 37.0586 40.2679 37.0977 39.9424 37.0977C39.4639 37.0977 39.0586 37.013 38.7266 36.8438C38.3945 36.6712 38.1423 36.4515 37.9697 36.1846C37.8005 35.9144 37.7158 35.6344 37.7158 35.3447H38.8535C38.8665 35.5628 38.9268 35.737 39.0342 35.8672C39.1449 35.9941 39.2816 36.0869 39.4443 36.1455C39.6104 36.2008 39.7812 36.2285 39.957 36.2285C40.1686 36.2285 40.346 36.2008 40.4893 36.1455C40.6325 36.0869 40.7415 36.0088 40.8164 35.9111C40.8913 35.8102 40.9287 35.6963 40.9287 35.5693Z" fill="#D2D2D2"/>
<path d="M28.9 18.45C30.25 18.45 31.35 17.35 31.35 16C31.35 14.65 30.25 13.55 28.9 13.55C27.54 13.55 26.45 14.65 26.45 16C26.45 17.35 27.54 18.45 28.9 18.45ZM34.1 16.68L35.58 17.84C35.71 17.95 35.75 18.13 35.66 18.29L34.26 20.71C34.17 20.86 34 20.92 33.83 20.86L32.09 20.16C31.73 20.44 31.33 20.67 30.91 20.85L30.64 22.7C30.62 22.87 30.47 23 30.3 23H27.5C27.32 23 27.18 22.87 27.15 22.7L26.89 20.85C26.46 20.67 26.07 20.44 25.71 20.16L23.96 20.86C23.81 20.92 23.62 20.86 23.54 20.71L22.14 18.29C22.05 18.13 22.09 17.95 22.22 17.84L23.7 16.68L23.65 16L23.7 15.31L22.22 14.16C22.09 14.05 22.05 13.86 22.14 13.71L23.54 11.29C23.62 11.13 23.81 11.07 23.96 11.13L25.71 11.84C26.07 11.56 26.46 11.32 26.89 11.15L27.15 9.29C27.18 9.13 27.32 9 27.5 9H30.3C30.47 9 30.62 9.13 30.64 9.29L30.91 11.15C31.33 11.32 31.73 11.56 32.09 11.84L33.83 11.13C34 11.07 34.17 11.13 34.26 11.29L35.66 13.71C35.75 13.86 35.71 14.05 35.58 14.16L34.1 15.31L34.15 16L34.1 16.68ZM19.69 8.07C20.56 8.07 21.26 7.37 21.26 6.5C21.26 5.63 20.56 4.92 19.69 4.92C19.271 4.92 18.8691 5.08646 18.5728 5.38277C18.2765 5.67908 18.11 6.08096 18.11 6.5C18.11 7.37 18.82 8.07 19.69 8.07ZM23.03 6.94L24 7.68C24.07 7.75 24.09 7.87 24.03 7.97L23.13 9.53C23.08 9.63 22.96 9.67 22.86 9.63L21.74 9.18L21 9.62L20.81 10.81C20.79 10.92 20.7 11 20.59 11H18.79C18.67 11 18.58 10.92 18.56 10.81L18.4 9.62L17.64 9.18L16.5 9.63C16.41 9.67 16.3 9.63 16.24 9.53L15.34 7.97C15.28 7.87 15.31 7.75 15.39 7.68L16.34 6.94L16.31 6.5L16.34 6.06L15.39 5.32C15.31 5.25 15.28 5.13 15.34 5.03L16.24 3.47C16.3 3.37 16.41 3.33 16.5 3.37L17.63 3.82L18.4 3.38L18.56 2.19C18.58 2.08 18.67 2 18.79 2H20.59C20.7 2 20.79 2.08 20.81 2.19L21 3.38L21.74 3.82L22.86 3.37C22.96 3.33 23.08 3.37 23.13 3.47L24.03 5.03C24.09 5.13 24.07 5.25 24 5.32L23.03 6.06L23.06 6.5L23.03 6.94Z" fill="#D2D2D2"/>
</svg>
